<svg xmlns="http://www.w3.org/2000/svg" xmlns:xlink="http://www.w3.org/1999/xlink" viewBox="0 0 1921 1841.5"><defs><style>.cls-1{fill:url(#linear-gradient);}.cls-2{fill:url(#linear-gradient-2);}.cls-3{fill:url(#New_Gradient_Swatch_1);}</style><linearGradient id="linear-gradient" x1="960.75" y1="1841.5" x2="960.75" y2="143.31" gradientUnits="userSpaceOnUse"><stop offset="0.02" stop-color="#222525"/><stop offset="0.06" stop-color="#233738"/><stop offset="0.11" stop-color="#244a4c"/><stop offset="0.17" stop-color="#255558"/><stop offset="0.22" stop-color="#25595c"/></linearGradient><linearGradient id="linear-gradient-2" y1="866.41" x2="1921" y2="866.41" gradientUnits="userSpaceOnUse"><stop offset="0" stop-color="#90f5b6" stop-opacity="0.9"/><stop offset="1" stop-color="#007175"/></linearGradient><linearGradient id="New_Gradient_Swatch_1" x1="0.5" y1="129.01" x2="1921" y2="129.01" gradientUnits="userSpaceOnUse"><stop offset="0" stop-color="#7fe1ab"/><stop offset="1" stop-color="#00544e"/></linearGradient></defs><title>Asset 5</title><g id="Layer_2" data-name="Layer 2"><g id="Layer_1-2" data-name="Layer 1"><path id="a" class="cls-1" d="M1,1836.5C.83,1466,.67,523.5.5,153c28.64,12.55,71.07,30.67,123,51,0,0,206.8,80.95,391,126,422.88,103.41,686-300.48,1247.5-154.5,50,13,139.43,46.95,159,60.5V1841.5q-480-.75-960-2T1,1836.5Z"/><path id="a-2" data-name="a" class="cls-2" d="M1,243.5C166.78,327.71,393.66,406.17,645.5,367c263.64-41,363.12-180.63,621-216,149.78-20.54,355.4-10.56,654.5,156V620c0,120.5-1,848-1,968.5-244.67.34-694.34,2.34-939,0-290.69-2.78-876-6.67-981-10C0,1334,.2,829.5.5,585,.71,414.25,1,264.72,1,243.5Z"/><g id="Layer_2-2" data-name="Layer 2"><path class="cls-3" d="M.5,117c181,87.9,453.23,182.24,757,122,141.54-28.07,200.61-72,349-110,177.23-45.4,445.91-73,814.5,34V54c-379.09-72.37-650.71-24.93-828.5,32-146.79,47-204.58,92.34-335,116C457,256.51,183.22,121.13.5,0Z"/></g></g></g></svg>